<mxfile host="app.diagrams.net" modified="2023-10-25T18:31:12.280Z" agent="Mozilla/5.0 (Windows NT 10.0; Win64; x64) AppleWebKit/537.36 (KHTML, like Gecko) Chrome/118.0.0.0 Safari/537.36 Edg/118.0.2088.61" etag="9I3Z3dNBtgiS_rx4GIf1" version="22.0.8" type="device">
  <diagram name="Página-1" id="p7R3dtraR7llKxy9o6nl">
    <mxGraphModel dx="1216" dy="480" grid="1" gridSize="10" guides="1" tooltips="1" connect="1" arrows="1" fold="1" page="1" pageScale="1" pageWidth="827" pageHeight="1169" math="0" shadow="0">
      <root>
        <mxCell id="0" />
        <mxCell id="1" parent="0" />
        <mxCell id="euUwqNRsBvcwLJMWMEUt-1" value="DEPARTAMENTOS" style="rounded=0;whiteSpace=wrap;html=1;" vertex="1" parent="1">
          <mxGeometry x="300" y="120" width="120" height="60" as="geometry" />
        </mxCell>
        <mxCell id="euUwqNRsBvcwLJMWMEUt-2" value="&lt;u&gt;CODIGO&lt;/u&gt;" style="ellipse;whiteSpace=wrap;html=1;" vertex="1" parent="1">
          <mxGeometry x="160" y="20" width="120" height="80" as="geometry" />
        </mxCell>
        <mxCell id="euUwqNRsBvcwLJMWMEUt-3" value="NOMBRE" style="ellipse;whiteSpace=wrap;html=1;" vertex="1" parent="1">
          <mxGeometry x="294" y="20" width="120" height="80" as="geometry" />
        </mxCell>
        <mxCell id="euUwqNRsBvcwLJMWMEUt-5" value="PRESUPUESTO ANUAL" style="ellipse;whiteSpace=wrap;html=1;" vertex="1" parent="1">
          <mxGeometry x="420" y="20" width="120" height="80" as="geometry" />
        </mxCell>
        <mxCell id="euUwqNRsBvcwLJMWMEUt-6" value="CERCA" style="rhombus;whiteSpace=wrap;html=1;" vertex="1" parent="1">
          <mxGeometry x="320" y="220" width="80" height="80" as="geometry" />
        </mxCell>
        <mxCell id="euUwqNRsBvcwLJMWMEUt-7" value="CENTRO" style="rounded=0;whiteSpace=wrap;html=1;" vertex="1" parent="1">
          <mxGeometry x="300" y="340" width="120" height="60" as="geometry" />
        </mxCell>
        <mxCell id="euUwqNRsBvcwLJMWMEUt-8" value="&lt;u&gt;CODIGO&lt;/u&gt;" style="ellipse;whiteSpace=wrap;html=1;" vertex="1" parent="1">
          <mxGeometry x="130" y="280" width="120" height="80" as="geometry" />
        </mxCell>
        <mxCell id="euUwqNRsBvcwLJMWMEUt-9" value="NOMBRE&amp;nbsp;" style="ellipse;whiteSpace=wrap;html=1;" vertex="1" parent="1">
          <mxGeometry x="130" y="370" width="120" height="80" as="geometry" />
        </mxCell>
        <mxCell id="euUwqNRsBvcwLJMWMEUt-10" value="POBLACIÓN" style="ellipse;whiteSpace=wrap;html=1;" vertex="1" parent="1">
          <mxGeometry x="450" y="280" width="120" height="80" as="geometry" />
        </mxCell>
        <mxCell id="euUwqNRsBvcwLJMWMEUt-11" value="DIRECCIÓN" style="ellipse;whiteSpace=wrap;html=1;" vertex="1" parent="1">
          <mxGeometry x="450" y="370" width="120" height="80" as="geometry" />
        </mxCell>
        <mxCell id="euUwqNRsBvcwLJMWMEUt-12" value="TRABAJAN" style="rhombus;whiteSpace=wrap;html=1;" vertex="1" parent="1">
          <mxGeometry x="315" y="480" width="90" height="90" as="geometry" />
        </mxCell>
        <mxCell id="euUwqNRsBvcwLJMWMEUt-13" value="EMPLEADOS" style="rounded=0;whiteSpace=wrap;html=1;" vertex="1" parent="1">
          <mxGeometry x="300" y="660" width="120" height="60" as="geometry" />
        </mxCell>
        <mxCell id="euUwqNRsBvcwLJMWMEUt-14" value="NUMERO DE TELEFONO" style="ellipse;whiteSpace=wrap;html=1;" vertex="1" parent="1">
          <mxGeometry x="90" y="590" width="120" height="80" as="geometry" />
        </mxCell>
        <mxCell id="euUwqNRsBvcwLJMWMEUt-15" value="DATA DE ALTA DE EMPRESA" style="ellipse;whiteSpace=wrap;html=1;" vertex="1" parent="1">
          <mxGeometry x="90" y="680" width="120" height="80" as="geometry" />
        </mxCell>
        <mxCell id="euUwqNRsBvcwLJMWMEUt-16" value="NIF" style="ellipse;whiteSpace=wrap;html=1;" vertex="1" parent="1">
          <mxGeometry x="450" y="610" width="120" height="80" as="geometry" />
        </mxCell>
        <mxCell id="euUwqNRsBvcwLJMWMEUt-17" value="NOMBRE" style="ellipse;whiteSpace=wrap;html=1;" vertex="1" parent="1">
          <mxGeometry x="450" y="700" width="120" height="80" as="geometry" />
        </mxCell>
        <mxCell id="euUwqNRsBvcwLJMWMEUt-18" value="HIJOS" style="ellipse;whiteSpace=wrap;html=1;" vertex="1" parent="1">
          <mxGeometry x="90" y="770" width="120" height="80" as="geometry" />
        </mxCell>
        <mxCell id="euUwqNRsBvcwLJMWMEUt-19" value="NUMERO&amp;nbsp;" style="ellipse;whiteSpace=wrap;html=1;" vertex="1" parent="1">
          <mxGeometry x="-80" y="730" width="120" height="80" as="geometry" />
        </mxCell>
        <mxCell id="euUwqNRsBvcwLJMWMEUt-20" value="CODIGO" style="ellipse;whiteSpace=wrap;html=1;" vertex="1" parent="1">
          <mxGeometry x="-80" y="810" width="120" height="80" as="geometry" />
        </mxCell>
        <mxCell id="euUwqNRsBvcwLJMWMEUt-21" value="NOMBRE" style="ellipse;whiteSpace=wrap;html=1;" vertex="1" parent="1">
          <mxGeometry x="-80" y="900" width="120" height="80" as="geometry" />
        </mxCell>
        <mxCell id="euUwqNRsBvcwLJMWMEUt-22" value="DATA NACIMIENTO" style="ellipse;whiteSpace=wrap;html=1;" vertex="1" parent="1">
          <mxGeometry x="60" y="900" width="120" height="80" as="geometry" />
        </mxCell>
        <mxCell id="euUwqNRsBvcwLJMWMEUt-23" value="HABILIDADES" style="ellipse;whiteSpace=wrap;html=1;" vertex="1" parent="1">
          <mxGeometry x="450" y="800" width="120" height="80" as="geometry" />
        </mxCell>
        <mxCell id="euUwqNRsBvcwLJMWMEUt-24" value="DESCRIPCIÓN" style="ellipse;whiteSpace=wrap;html=1;" vertex="1" parent="1">
          <mxGeometry x="590" y="770" width="120" height="80" as="geometry" />
        </mxCell>
        <mxCell id="euUwqNRsBvcwLJMWMEUt-25" value="CODIGO" style="ellipse;whiteSpace=wrap;html=1;" vertex="1" parent="1">
          <mxGeometry x="590" y="860" width="120" height="80" as="geometry" />
        </mxCell>
      </root>
    </mxGraphModel>
  </diagram>
</mxfile>
